<svg xmlns="http://www.w3.org/2000/svg" xml:space="preserve" id="Layer_1" x="0" y="0" style="enable-background:new 0 0 273 85.4" version="1.1" viewBox="0 0 273 85.4">
  <style>
    .st1{fill:#04ab61}
  </style>
  <path d="M78.2 43.7c-1.9-1.6-4.5-2.4-7.9-2.4H59v29.5h5.8v-8.5h4.1c2 0 3.8-.3 5.3-.9 1.5-.6 2.7-1.5 3.7-2.6s1.7-2.3 2.2-3.7c.5-1.4.7-2.9.7-4.4.1-3.1-.8-5.4-2.6-7zm-3.8 10.4c-.4 1-1.1 1.8-2 2.5-.9.6-2.1.9-3.6.9h-4V46.3h5.4c1.4 0 2.6.3 3.5 1 .9.7 1.4 1.8 1.4 3.4 0 1.3-.2 2.4-.7 3.4zm29.7 10.7v-7.4c0-2-.3-3.6-.8-4.8-.5-1.3-1.3-2.2-2.2-2.9-1-.7-2.1-1.2-3.4-1.4-1.3-.3-2.7-.4-4.2-.4-1.2 0-2.5.1-3.7.3-1.2.2-2.3.4-3.3.8v4.6h.4c.7-.3 1.5-.6 2.6-.8 1.1-.2 2.2-.4 3.3-.4 1.3 0 2.3.1 3.2.4.8.2 1.5.7 1.9 1.4.4.7.7 1.8.7 3.2v.4l-1.2-.3c-.9-.2-1.9-.3-3.1-.3-1.9 0-3.6.3-5.1.8-1.4.5-2.6 1.3-3.4 2.3-.8 1-1.2 2.4-1.2 4 0 2.5.9 4.3 2.6 5.5 1.7 1.1 4.3 1.7 7.7 1.7 1 0 2.1-.1 3.2-.2s2.2-.3 3.3-.6c1.1-.3 2.1-.6 3-.9l.1-.3c-.1-.5-.2-1.1-.2-2-.2-1-.2-1.8-.2-2.7zm-6.6 2.3c-.9.2-1.8.2-2.7.2-1.6 0-2.8-.2-3.6-.7-.8-.5-1.3-1.3-1.3-2.4 0-1.2.4-2 1.3-2.5s2.2-.7 4-.7c.8 0 1.6.1 2.5.2.3.1.6.1.9.2v3.3c0 .4.1.8.1 1.2 0 .3.1.6.2.9-.6.1-1 .2-1.4.3zm21.5-3-5.2-15.7h-6.1v.5l8.5 22.4-3.6 8.6v.4h5.7l12.2-31.4v-.5h-5.8zm46.6-14.3c-1-.7-2-1.2-3.2-1.5-1.2-.3-2.5-.4-3.8-.4-1.4 0-2.7.2-4.1.5-1.2.3-2.3.6-3.3 1.1-.8-.5-1.7-.9-2.7-1.1-1.2-.3-2.4-.5-3.7-.5-1.1 0-2.3.1-3.5.3-1.2.2-2.4.4-3.5.7-1.1.3-2.1.6-2.9.9l-.1.3c.1.5.2 1.2.2 2 .1.8.1 1.7.1 2.5v16.1h5.7V55.9c0-.8 0-1.6-.1-2.3 0-.2-.1-.4-.1-.5.3-.1.7-.2 1.1-.3.8-.2 1.7-.3 2.5-.3 1 0 1.8.2 2.6.5s1.4.9 1.8 1.7c.4.8.7 1.9.7 3.4v12.7h5.7V57.9c0-1.9-.3-3.5-.8-4.7.5-.2 1-.3 1.5-.4.7-.2 1.4-.2 2.1-.2 1.1 0 2 .2 2.8.5.8.3 1.4.9 1.8 1.7.4.8.6 1.9.6 3.4v12.7h5.7v-13c0-2.1-.3-3.8-.8-5-.6-1.3-1.3-2.3-2.3-3.1zm26.1-.3c-1.6-1-3.6-1.6-6.1-1.6-2.2 0-4.2.5-5.8 1.4-1.6.9-2.9 2.3-3.8 4-.9 1.7-1.4 3.8-1.4 6.2 0 2 .3 3.8.9 5.2.6 1.5 1.5 2.7 2.6 3.6 1.1.9 2.5 1.6 4.1 2.1 1.6.5 3.4.7 5.5.7 1.5 0 2.8-.1 3.9-.3 1.1-.2 2.1-.5 2.8-.8v-4.6h-.4c-.6.3-1.4.6-2.4.9-1 .2-2.2.4-3.5.4-1.5 0-2.8-.2-4-.6-1.1-.4-2-1.1-2.7-2-.5-.7-.8-1.6-.9-2.7h15.4V60c.1-2.4-.2-4.4-.9-6.2-.6-1.9-1.7-3.3-3.3-4.3zm-1.4 8.1h-9.8c.1-1 .3-1.9.6-2.6.5-1 1.1-1.7 1.8-2.1.8-.4 1.7-.7 2.7-.7 1.6 0 2.8.4 3.5 1.3.8.9 1.2 2.1 1.2 3.8v.3zm28.9-7.7c-1-.7-2.2-1.2-3.4-1.5-1.3-.3-2.6-.5-4-.5-1.1 0-2.3.1-3.5.3-1.2.2-2.4.4-3.5.7-1.1.3-2.1.6-2.9.9l-.1.3c.1.5.2 1.2.2 2 .1.8.1 1.7.1 2.5v16.1h5.7V55.9c0-.8 0-1.6-.1-2.3 0-.2-.1-.4-.1-.5.3-.1.7-.2 1.1-.3.8-.2 1.7-.3 2.5-.3 1.1 0 2.1.2 2.9.5.8.3 1.4.9 1.9 1.7.4.8.7 1.9.7 3.4v12.7h5.7V57.9c0-2-.3-3.7-.9-5-.5-1.3-1.2-2.3-2.3-3zm22.3 16.4c-.5.1-1 .2-1.5.2-1.4 0-2.4-.3-3-.9s-1-1.6-1-3V53h6.1v-4.6H236v-5.8h-5.7v5.8h-3.6V53h3.6v10c0 1.9.3 3.4 1 4.6.7 1.2 1.7 2 3.1 2.6 1.4.6 3 .9 5 .9.8 0 1.6-.1 2.2-.2.7-.1 1.2-.3 1.7-.5v-4.6h-.4c-.4.3-.9.4-1.4.5zm20.2-7.6c-1-.5-2.2-.8-3.5-1l-1.9-.3c-1.2-.2-2.2-.5-2.8-.8-.6-.3-.9-.8-.9-1.5 0-.9.4-1.6 1.3-1.9.9-.4 2.1-.6 3.6-.6 1 0 2 .1 3 .2 1 .2 2 .5 3 .9h.3V49c-.9-.3-1.9-.5-2.9-.6-1-.2-2.1-.2-3.2-.2-2.5 0-4.6.3-6.1 1-1.5.6-2.7 1.5-3.4 2.6-.7 1.1-1.1 2.3-1.1 3.6 0 1.9.6 3.3 1.8 4.2 1.2.9 2.9 1.6 5 2l1.9.3c1.3.2 2.3.5 2.9.8.6.3.9.8.9 1.6 0 .6-.2 1.1-.5 1.4-.3.4-.7.6-1.2.7l-1.5.3h-1.5c-1.3 0-2.7-.1-4-.5-1.3-.3-2.5-.7-3.4-1.1h-.3V70c1 .3 2.2.6 3.5.8 1.3.2 2.6.3 3.9.3 3.6 0 6.2-.6 8-1.8 1.8-1.2 2.7-3 2.7-5.4 0-1.3-.3-2.4-.9-3.3-.8-.7-1.6-1.4-2.7-1.9zM88.5 35.1c2.3 1.2 5.2 1.8 8.7 1.8 1.4 0 2.6-.1 3.7-.3 1.1-.2 2-.5 2.8-.9v-5.2h-.4c-.7.4-1.6.7-2.6 1-1 .2-2.1.3-3.2.3-2.2 0-4-.4-5.5-1.2-1.5-.8-2.6-1.9-3.4-3.4-.8-1.5-1.1-3.4-1.1-5.6s.4-4 1.1-5.5c.8-1.5 1.9-2.7 3.4-3.5 1.5-.8 3.3-1.2 5.5-1.2 1.1 0 2.2.1 3.2.4 1 .2 1.9.5 2.6.9h.4v-5c-.7-.4-1.7-.6-2.8-.9-1.1-.2-2.3-.3-3.7-.3-3.4 0-6.3.6-8.7 1.9-2.3 1.3-4.1 3-5.3 5.3-1.2 2.3-1.8 4.9-1.8 8 0 3.1.6 5.9 1.8 8.2 1.3 2.3 3 4 5.3 5.2zm22.9.2c1.7 1.1 4.3 1.7 7.7 1.7 1 0 2.1-.1 3.2-.2s2.2-.3 3.3-.6c1.1-.3 2.1-.6 3-.9l.1-.3c-.1-.5-.2-1.1-.2-2-.1-.8-.1-1.7-.1-2.5v-7.4c0-2-.3-3.6-.8-4.8-.5-1.3-1.3-2.2-2.2-2.9-1-.7-2.1-1.2-3.4-1.4-1.3-.3-2.7-.4-4.2-.4-1.2 0-2.5.1-3.7.3-1.2.2-2.3.4-3.3.8v4.6h.4c.7-.3 1.5-.6 2.6-.8 1.1-.2 2.2-.4 3.3-.4 1.3 0 2.3.1 3.2.4.8.2 1.5.7 1.9 1.4.4.7.7 1.8.7 3.2v.4l-1.2-.3c-.9-.2-1.9-.3-3.1-.3-1.9 0-3.6.3-5.1.8-1.4.5-2.6 1.3-3.4 2.3-.8 1-1.2 2.4-1.2 4-.1 2.4.8 4.2 2.5 5.3zm4-8c.9-.5 2.2-.7 4-.7.8 0 1.6.1 2.5.2.3.1.6.1.9.2v3.3c0 .4.1.8.1 1.2 0 .3.1.6.2.9-.4.1-.8.3-1.2.4-.9.2-1.8.2-2.7.2-1.6 0-2.8-.2-3.6-.7-.8-.5-1.3-1.3-1.3-2.4-.1-1.3.3-2.1 1.1-2.6zm29.8 4.7-1.5.3h-1.5c-1.3 0-2.7-.2-4-.5-1.3-.3-2.5-.7-3.4-1.1h-.3v4.8c1 .3 2.2.6 3.5.8s2.6.3 3.9.3c3.6 0 6.2-.6 8-1.8 1.8-1.2 2.7-3 2.7-5.4 0-1.3-.3-2.4-.9-3.3-.6-.9-1.5-1.6-2.5-2.1s-2.2-.8-3.5-1l-1.9-.3c-1.2-.2-2.2-.5-2.8-.8-.6-.3-.9-.8-.9-1.5 0-.9.4-1.6 1.3-1.9.9-.4 2.1-.6 3.6-.6 1 0 2 .1 3 .2 1 .2 2 .5 3 .9h.3v-4.7c-.9-.3-1.9-.5-2.9-.6-1-.2-2.1-.2-3.2-.2-2.5 0-4.6.3-6.1 1-1.5.6-2.7 1.5-3.4 2.6-.7 1.1-1.1 2.3-1.1 3.6 0 1.9.6 3.3 1.8 4.2 1.2.9 2.9 1.6 5 2l1.9.3c1.3.2 2.3.5 2.9.8.6.3.9.8.9 1.6 0 .6-.2 1.1-.5 1.4-.5.6-.9.9-1.4 1zm33.3 4.5V23.6c0-1.9-.2-3.5-.7-4.7-.5-1.3-1.2-2.3-2-3.1-.8-.8-1.9-1.4-3-1.7-1.1-.4-2.4-.5-3.7-.5-1.3 0-2.5.1-3.5.4-.5.1-1 .3-1.5.5V5.3h-6l-.1.3c.1.5.2 1.1.2 2 .1.8.1 1.7.1 2.5v26.3h5.7V18.9h.1c.5-.1 1.1-.3 1.7-.4.6-.1 1.2-.2 1.8-.2 1 0 1.9.2 2.7.5.8.3 1.4.9 1.8 1.7.4.8.7 1.9.7 3.4v12.6h5.7zM196 5.1c-2 0-3.7.3-5.1 1-1.4.7-2.5 1.7-3.2 3-.7 1.3-1.1 3-1.1 5H183v4.6h3.6v17.8h5.7V18.7h5.7v-4.6h-5.7c0-1.6.3-2.7.9-3.4.6-.8 1.7-1.1 3.1-1.1.6 0 1.1.1 1.5.2.4.1.8.2 1.1.3h.4V5.6c-.4-.2-.9-.3-1.5-.4-.4-.1-1.1-.1-1.8-.1zm6.3 15v16.4h5.7V21.6c0-1.2-.1-2.1-.2-2.8.3-.1.6-.1 1-.2.8-.1 1.7-.2 2.6-.2.5 0 1 0 1.5.1.5 0 1 .1 1.4.2h.4V14c-.6-.1-1.1-.1-1.7-.2h-1.6c-1.1 0-2.3.1-3.4.2s-2.2.3-3.2.5-1.9.5-2.7.7l-.1.3c.1.5.2 1.2.2 2 0 .9.1 1.7.1 2.6zM235 36.6c1.1-.2 2.1-.5 2.8-.8v-4.6h-.4c-.6.3-1.4.6-2.4.9-1 .2-2.2.4-3.5.4-1.5 0-2.8-.2-4-.6-1.1-.4-2-1.1-2.7-2-.5-.7-.8-1.6-.9-2.7h15.4v-1.4c.1-2.4-.2-4.4-.9-6.2-.7-1.8-1.8-3.3-3.4-4.3-1.6-1-3.6-1.6-6.1-1.6-2.2 0-4.2.5-5.8 1.4-1.6.9-2.9 2.3-3.8 4-.9 1.7-1.4 3.8-1.4 6.2 0 2 .3 3.8.9 5.2.6 1.5 1.5 2.7 2.6 3.6 1.1.9 2.5 1.6 4.1 2.1 1.6.5 3.4.7 5.5.7 1.6 0 2.9-.1 4-.3zm-8.6-18.1c.8-.4 1.7-.7 2.7-.7 1.6 0 2.8.4 3.5 1.3.8.9 1.2 2.1 1.2 3.8v.2H224c.1-1 .3-1.9.6-2.6.4-.9 1-1.6 1.8-2zm38.2.9c-.7-1.8-1.8-3.3-3.4-4.3-1.6-1-3.6-1.6-6.1-1.6-2.2 0-4.2.5-5.8 1.4-1.6.9-2.9 2.3-3.8 4-.9 1.7-1.4 3.8-1.4 6.2 0 2 .3 3.8.9 5.2.6 1.5 1.5 2.7 2.6 3.6 1.1.9 2.5 1.6 4.1 2.1 1.6.5 3.4.7 5.5.7 1.5 0 2.8-.1 3.9-.3 1.1-.2 2.1-.5 2.8-.8V31h-.4c-.6.3-1.4.6-2.4.9-1 .2-2.2.4-3.5.4-1.5 0-2.8-.2-4-.6-1.1-.4-2-1.1-2.7-2-.5-.7-.8-1.6-.9-2.7h15.4v-1.4c.2-2.3-.1-4.4-.8-6.2zm-4.7 3.8h-9.8c.1-1 .3-1.9.6-2.6.5-1 1.1-1.7 1.8-2.1.8-.4 1.7-.7 2.7-.7 1.6 0 2.8.4 3.5 1.3.8.9 1.2 2.1 1.2 3.8v.3z" style="fill:#1f074f"/>
  <path d="M32.8 5.5C26.9 5.5 22 10.3 22 16.2h39.9c5.9 0 10.8-4.8 10.8-10.8H32.8z" class="st1"/>
  <path d="M22 16.2c0-5.9 4.8-10.8 10.8-10.8v39.9c0 5.9-4.8 10.8-10.8 10.8V16.2z" class="st1"/>
  <path d="M36.2 19.8v10.8h12.5c5.9 0 10.8-4.8 10.8-10.8H36.2z" style="fill-rule:evenodd;clip-rule:evenodd;fill:#fbb016"/>
  <path d="M7.5 30.6c0-5.9 4.8-10.8 10.8-10.8v39.9c0 5.9-4.8 10.8-10.8 10.8V30.6z" style="fill:#fbb016"/>
</svg>
